<svg width="45" height="45" viewBox="0 0 45 45" fill="none" xmlns="http://www.w3.org/2000/svg">
<path fill-rule="evenodd" clip-rule="evenodd" d="M34.9884 7.95698L29.5397 6.4726L29.2808 7.38986L33.9405 10.1463L35.2994 9.21266L38.2358 14.1069L38.8045 13.0824L41.8953 16.4463L43.4907 10.2732L34.9884 7.95698Z" fill="#00A0A8"/>
<path fill-rule="evenodd" clip-rule="evenodd" d="M1.8493 8.03653L1.84961 8.03684C2.00465 8.57438 2.16153 9.10698 2.32119 9.63218C2.44817 9.50181 2.5804 9.38253 2.71448 9.26787C2.74252 9.24383 2.77026 9.21948 2.79893 9.19605C2.92838 9.08941 3.05999 8.98862 3.19345 8.89523C3.2218 8.87551 3.25016 8.85732 3.27852 8.8379C3.39718 8.75746 3.51677 8.68164 3.63667 8.61075C3.66317 8.59533 3.68937 8.57838 3.71557 8.56328C3.84687 8.48838 3.97787 8.41965 4.10855 8.35492C4.15078 8.33396 4.19269 8.31393 4.23492 8.2939C4.36037 8.23472 4.48519 8.17831 4.60787 8.12777H4.60817L3.54944 7.70551L1.8493 8.03653Z" fill="#00A0A8"/>
<path fill-rule="evenodd" clip-rule="evenodd" d="M29.6174 5.23975L29.5891 7.16951C29.5891 7.16951 40.8671 10.8826 43.0946 12.2752L44.034 9.36988L29.6174 5.23975Z" fill="#00777C"/>
<path fill-rule="evenodd" clip-rule="evenodd" d="M3.74022 6.4726C2.74591 6.70006 2.00186 6.90379 1.54108 7.0391C1.63478 7.37999 1.73125 7.71441 1.82741 8.04852L3.52755 7.71749L4.58628 8.13944C5.0557 7.9465 5.50046 7.81397 5.87525 7.7252C5.28748 7.21756 4.40536 6.7466 3.8182 6.50465L3.74022 6.4726Z" fill="#00777C"/>
<path fill-rule="evenodd" clip-rule="evenodd" d="M33.9688 32.7486C34.199 32.3908 34.4462 32.0268 34.6891 31.6575C34.9693 31.1147 35.2615 30.5784 35.5756 30.0591C35.9226 29.4846 36.2314 28.8358 36.6528 28.3072C36.6432 28.2801 36.6355 28.2517 36.6253 28.2249C36.4333 28.06 36.2484 27.8858 36.0397 27.7397C35.6298 27.8307 35.272 28.1244 34.8685 28.2421C34.8287 28.2535 34.7921 28.2557 34.7575 28.2523C34.057 29.1166 33.5395 30.2101 33.0109 31.1792C32.7406 31.6751 32.4336 32.1285 31.9805 32.4071C31.9506 32.4463 31.9207 32.4857 31.8905 32.5248C31.8606 32.5218 31.8295 32.5245 31.7989 32.5236C31.586 32.7061 31.3351 32.7924 31.0851 32.9459C30.8931 33.0636 30.7143 33.1962 30.5414 33.3364C30.5294 33.3802 30.5205 33.4252 30.5137 33.4702C30.5383 33.492 30.5627 33.5155 30.5818 33.55C30.6434 33.6616 30.7115 33.7679 30.784 33.8708C31.1803 34.1168 31.5166 34.4444 31.8846 34.7317C31.9198 34.7234 31.9558 34.7163 31.9897 34.7064C32.068 34.7539 32.1509 34.7853 32.2351 34.8063C32.6465 34.4759 32.9939 34.0737 33.4134 33.758C33.402 33.717 33.389 33.676 33.3702 33.6347C33.5835 33.3527 33.7771 33.0467 33.9688 32.7486Z" fill="#00777C"/>
<path fill-rule="evenodd" clip-rule="evenodd" d="M36.5573 17.6607C36.7259 17.5611 36.8658 17.4132 36.9792 17.2569C36.9416 16.7104 36.7228 16.1803 36.062 16.0274L36.0616 16.0283C36.5129 16.7625 36.5573 17.6607 36.5573 17.6607Z" fill="#EEA52D"/>
<path fill-rule="evenodd" clip-rule="evenodd" d="M35.8197 19.4409C34.4012 20.2519 32.3738 19.9171 32.3738 19.9171C34.4173 19.8432 35.1555 18.4932 35.1555 18.4932C35.1555 18.4932 33.1998 19.7285 30.8219 18.712C30.8219 18.712 31.8905 22.5016 35.8197 19.4409Z" fill="#EEA52D"/>
<path fill-rule="evenodd" clip-rule="evenodd" d="M31.9762 17.252C31.9713 17.0509 31.9824 16.8468 32.0058 16.6439C31.7681 16.722 31.4377 16.7954 31.1301 16.7501C31.5635 17.0801 31.9762 17.252 31.9762 17.252Z" fill="#EEA52D"/>
<path fill-rule="evenodd" clip-rule="evenodd" d="M32.3245 23.2872C32.3245 23.2872 31.4923 22.5949 30.5273 22.5L30.1574 22.6507C30.1537 22.6526 29.8889 22.7657 29.5891 22.995C30.3195 22.9232 31.1406 22.8991 31.6464 23.065L32.3245 23.2872Z" fill="#EEA52D"/>
<path fill-rule="evenodd" clip-rule="evenodd" d="M28.2672 22.7262C28.4598 22.4895 28.6713 22.291 28.8741 22.1317C28.3079 21.5911 27.9522 20.8896 27.7404 20.3431L27.7398 20.3425C27.7398 20.3425 27.721 21.8404 28.2672 22.7262Z" fill="#EEA52D"/>
<path fill-rule="evenodd" clip-rule="evenodd" d="M37.7911 22.7879C37.6441 23.208 37.2813 23.457 36.9684 23.6003C36.9684 23.6003 37.7695 23.8127 38.0981 23.3818C38.0981 23.3818 40.3672 23.3427 41.2656 22.938C40.1859 23.6201 36.1168 26.1197 33.1188 27.0111C33.1188 27.0111 33.3879 24.767 34.3239 24.369C34.3239 24.369 32.7418 24.0109 31.562 25.2296C32.1781 24.9818 32.9425 24.7734 33.5679 24.9066C33.5679 24.9066 30.6475 26.0032 30.2129 27.3649L30.1608 26.3342C30.1257 25.6401 30.375 24.8144 30.604 24.2165C29.9358 24.2257 29.0238 24.3441 28.395 24.4637L28.0905 24.5216C28.0248 24.8455 27.9752 25.1892 27.9672 25.5184C27.9672 25.5184 28.9831 24.9328 29.6421 25.0514C29.6421 25.0514 29.1819 26.668 29.4544 28.2797C29.4544 28.2797 29.1834 27.7835 27.4315 27.5693C27.4315 27.5693 27.4321 27.5699 27.4321 27.5702C29.5653 29.14 30.1617 31.8375 30.3103 32.8072C30.482 32.9033 30.7079 33.0448 30.9646 33.2414C31.6529 32.4903 33.6357 30.1457 33.869 27.834L33.9069 27.4608L34.2555 27.3227C37.5725 26.0094 41.3707 24.2242 41.8938 23.5612C41.8969 23.0502 41.8747 22.7056 41.8553 22.5C40.2488 22.9374 37.7911 22.7879 37.7911 22.7879Z" fill="#EEA52D"/>
<path fill-rule="evenodd" clip-rule="evenodd" d="M42.9685 20.4325C42.4381 20.352 41.7483 20.1631 41.3189 19.726C41.3642 20.0281 41.519 20.3976 41.9733 20.6282C41.9733 20.6282 41.5227 21.8244 37.9109 22.2325C37.919 22.3539 37.9146 22.4313 37.9146 22.4313C40.7749 22.4618 42.4387 21.4909 42.4387 21.4909C42.7337 21.2687 43.106 20.8849 42.9214 20.4528L42.9685 20.4325Z" fill="#EEA52D"/>
<path fill-rule="evenodd" clip-rule="evenodd" d="M12.6937 28.436C14.0209 27.2876 14.755 25.5597 15.1323 24.3493C14.3812 25.2456 12.9316 26.2784 10.1712 27.2037C11.3535 29.1967 12.563 31.0004 13.7749 32.6302C13.2466 29.8593 15.214 27.8627 15.214 27.8627C14.2141 27.6263 12.6937 28.436 12.6937 28.436Z" fill="#EEA52D"/>
<path fill-rule="evenodd" clip-rule="evenodd" d="M13.504 24.1841C13.4356 24.4054 13.3536 24.6372 13.2534 24.8727C13.9731 24.4578 14.7326 23.8774 15.1977 23.1165C14.7261 23.8072 13.982 24.0781 13.504 24.1841Z" fill="#EEA52D"/>
<path fill-rule="evenodd" clip-rule="evenodd" d="M12.5467 23.1165C10.2834 23.9144 9.48915 25.2536 9.24658 25.8128C9.44199 26.1592 9.63802 26.4998 9.83497 26.8351L11.2457 25.5649C12.0042 24.8822 12.3722 23.8546 12.5467 23.1165Z" fill="#EEA52D"/>
<path fill-rule="evenodd" clip-rule="evenodd" d="M31.7577 38.2976C31.5496 38.595 31.2432 39.471 30.6709 39.4996C30.0988 39.5286 29.6026 38.534 29.3976 38.8949C29.3976 38.8949 27.5674 30.4892 20.0342 36.202C21.915 36.0581 26.5253 36.1798 28.5852 40.4856L28.7445 40.8188L27.5348 42.4666C27.838 42.6435 28.2406 42.8028 28.6135 42.7618C28.9772 42.7212 29.2944 42.4974 29.5838 42.0776L29.7567 41.8273L30.0603 41.8119C30.1232 41.8082 31.6609 41.7056 31.6902 40.5855L31.7019 40.133L32.1377 40.0088C32.134 40.0091 32.3553 39.9231 32.4992 39.6143C32.6022 39.3927 32.6777 39.0367 32.6034 38.4822C32.2397 38.297 31.8591 38.1527 31.7577 38.2976Z" fill="#EEA52D"/>
<path fill-rule="evenodd" clip-rule="evenodd" d="M24.636 20.9589C24.1117 21.1836 23.8879 21.433 23.875 21.4481L22.9876 22.4621L22.7928 21.1368C22.7922 21.1325 22.7922 21.1284 22.7916 21.1244C22.2587 22.1363 21.5461 23.2468 20.6507 24.1327L22.0978 24.0596C22.341 23.7998 22.5971 23.4746 22.7706 23.1128L23.2459 23.8217C23.2459 23.8217 23.584 22.8169 23.9844 22.5416C23.9844 22.5416 24.4513 24.8443 25.1159 25.3843C25.1159 25.3843 24.75 23.9591 24.709 22.6541C24.5931 22.038 24.5937 21.4382 24.636 20.9589Z" fill="#EEA52D"/>
<path fill-rule="evenodd" clip-rule="evenodd" d="M19.6258 25.5822L17.2603 25.7015L18.5341 26.5463C18.9098 26.1903 19.2822 25.8636 19.6258 25.5822Z" fill="#EEA52D"/>
<path fill-rule="evenodd" clip-rule="evenodd" d="M22.639 18.0234C22.7552 17.2837 22.9553 16.6213 23.2123 16.0274C23.089 16.0333 22.9491 16.0484 22.8002 16.0706C22.6141 16.6494 22.1708 17.7078 21.2672 18.4956C21.3809 19.093 21.4952 19.993 21.3895 20.8717C22.1483 19.4952 22.5749 18.2207 22.639 18.0234Z" fill="#EEA52D"/>
<path fill-rule="evenodd" clip-rule="evenodd" d="M21.3351 16.442C21.202 16.474 21.0722 16.4922 20.9458 16.4987C20.1469 16.539 19.5015 16.1072 19.1301 15.7192C19.1039 15.987 19.0996 16.2123 19.1363 16.3393C19.2667 16.7899 20.0141 17.542 20.715 17.7858C20.9992 17.3863 21.2624 16.9277 21.451 16.4142C21.4418 16.4164 21.431 16.4188 21.422 16.421L21.3351 16.442Z" fill="#EEA52D"/>
<path fill-rule="evenodd" clip-rule="evenodd" d="M21.0757 25.8904C20.2839 26.4711 18.9259 27.5545 17.8767 28.8521C18.4189 28.7852 19.031 28.7408 19.5781 28.7769C19.7775 28.1462 20.2361 26.946 21.0757 25.8904Z" fill="#EEA52D"/>
<path fill-rule="evenodd" clip-rule="evenodd" d="M25.8904 13.9256C25.9215 13.8976 28.5321 11.5505 30.0159 11.4756C30.0159 11.4756 29.7382 11.0435 29.2614 11.0675C29.2614 11.0675 30.24 9.66296 30.4345 8.61871C30.1053 8.4905 29.769 8.38478 29.4315 8.3219C29.0308 9.55354 28.5096 10.7291 28.0581 11.6473C28.3697 11.5203 28.5663 11.462 28.5774 11.459C28.5774 11.459 27.1673 12.3435 25.8904 13.9256Z" fill="#EEA52D"/>
<path fill-rule="evenodd" clip-rule="evenodd" d="M16.9425 30.1975L16.6439 30.2653C17.0612 30.3815 17.7189 30.5698 18.2411 30.7406C18.5098 30.4188 18.7724 30.1358 19.0128 29.8973C18.2938 29.9407 17.4841 30.0745 16.9425 30.1975Z" fill="#EEA52D"/>
<path fill-rule="evenodd" clip-rule="evenodd" d="M19.0035 12.5561C19.6745 9.24332 22.4137 8.19167 22.4476 8.17904L22.5764 8.14698C23.6795 7.99719 24.6218 8.24345 25.3775 8.88362C26.1231 9.51455 26.5472 10.4269 26.7879 11.2406C26.9981 10.8202 27.2287 10.3338 27.4564 9.81075C27.1368 9.01585 26.4199 7.53609 25.2058 6.56643C25.2058 6.56643 25.343 7.38815 25.2684 7.80609C25.2684 7.80609 22.4383 5.39982 20.0752 5.93335C20.0752 5.93335 20.9351 6.55904 21.2662 7.43469C21.2662 7.43469 16.731 5.97465 13.1116 8.13311C13.1116 8.13311 16.404 8.33407 17.8462 10.388C17.8462 10.388 14.2117 11.4212 12.637 14.0993V14.0996C14.9828 13.0769 17.8718 12.6793 19.0035 12.5561Z" fill="#EEA52D"/>
<path fill-rule="evenodd" clip-rule="evenodd" d="M10.1124 13.2534C7.86607 14.2302 5.72888 16.1325 4.93152 16.8879C5.33035 17.8853 5.73874 18.851 6.15515 19.7861C6.35395 18.5492 7.12789 15.7158 10.1124 13.2534Z" fill="#EEA52D"/>
<path fill-rule="evenodd" clip-rule="evenodd" d="M9.22995 8.40326C9.22995 8.40326 8.42087 6.24635 5.72395 5.85614C6.46553 6.30861 7.28293 6.946 7.60162 7.69282L7.94159 8.48864L7.07796 8.54967C7.05022 8.55183 4.20659 8.79193 2.77399 10.8234C3.21844 12.2073 3.68169 13.5388 4.16005 14.8229C4.08731 13.0463 4.63471 9.80751 9.22995 8.40326Z" fill="#EEA52D"/>
<path fill-rule="evenodd" clip-rule="evenodd" d="M18.3369 20.9292C15.9479 17.1621 12.9452 19.5443 12.9452 19.5443C16.3159 18.7686 18.3369 20.9292 18.3369 20.9292Z" fill="#EEA52D"/>
<path fill-rule="evenodd" clip-rule="evenodd" d="M25.5828 18.8606C25.5828 18.8606 26.6878 16.1279 29.5554 15.4893C29.5554 15.4893 25.5267 14.5933 25.5828 18.8606Z" fill="#EEA52D"/>
<path fill-rule="evenodd" clip-rule="evenodd" d="M27.7542 40.0568C27.81 39.4742 27.2281 38.9487 26.6523 39.0874C26.5164 39.1204 26.3919 39.1716 26.2735 39.232C23.7048 36.9885 19.9396 37.6807 19.7454 37.7186L18.9403 37.8752L19.0131 37.0584C19.0778 36.3381 19.1906 35.6594 19.3312 35.0306C18.9444 34.1803 18.728 32.961 19.3534 31.4384C18.3732 32.5689 17.2328 34.3362 16.952 36.651C18.9293 38.8587 20.8532 40.6356 22.6106 42.0488C22.6233 42.2177 22.6843 42.3909 22.8113 42.5555C23.2052 43.0659 23.7541 43.3285 24.3887 43.3877C24.8061 43.4268 25.1855 43.1491 25.3263 42.767C25.33 42.7574 25.3344 42.7481 25.3377 42.7383C25.6034 42.7411 25.8716 42.6286 26.0667 42.3435C26.2316 42.1027 26.3962 41.862 26.5611 41.6213C26.6018 41.5618 26.7417 41.3405 26.856 41.1574C27.3822 41.0181 27.7033 40.5866 27.7542 40.0568Z" fill="#EEA52D"/>
<path fill-rule="evenodd" clip-rule="evenodd" d="M16.3788 27.7397C16.3642 27.7543 16.3502 27.7695 16.3356 27.7841C16.3496 27.7689 16.3654 27.7556 16.3788 27.7397Z" fill="#58B893"/>
<path fill-rule="evenodd" clip-rule="evenodd" d="M12.6874 23.3013C12.7026 23.2405 12.7209 23.1754 12.7349 23.1165C12.7008 23.1286 12.6704 23.142 12.637 23.1542C12.6534 23.2034 12.6674 23.2539 12.6874 23.3013Z" fill="#58B893"/>
<path fill-rule="evenodd" clip-rule="evenodd" d="M15.4109 29.1515C15.5818 29.1302 15.7582 29.1113 15.9351 29.0931C15.9163 28.9465 15.8737 28.8036 15.8208 28.6644C15.6828 28.8255 15.5441 28.9867 15.4109 29.1515Z" fill="#58B893"/>
<path fill-rule="evenodd" clip-rule="evenodd" d="M12.9165 19.7883C12.9165 19.7883 15.9192 17.406 18.3085 21.1731C18.3085 21.1731 16.2872 19.0128 12.9165 19.7883ZM18.5483 26.6061L17.272 25.7597L15.4023 25.854L18.4102 24.5096C19.788 23.8937 20.8667 22.4257 21.6191 21.0594C21.7236 20.1819 21.6092 19.2834 21.4955 18.6876C20.9305 19.1795 20.1859 19.566 19.2088 19.6619C19.2088 19.6619 20.1631 19.0208 20.9527 17.9121C20.2528 17.6668 19.5075 16.9169 19.3774 16.4666C19.3404 16.3396 19.3447 16.1134 19.3712 15.8449C19.3001 15.7712 19.2378 15.6988 19.1879 15.6316L19.0895 15.4991L19.0704 15.3354C19.0529 15.1847 19.0455 15.0426 19.0353 14.8981C19.0199 14.8916 19.0017 14.8845 18.9897 14.8786C19.0029 14.8571 19.0165 14.8361 19.0285 14.8139C19.0106 14.5251 19.002 14.2437 19.0103 13.9777C18.0182 14.0992 16.1544 14.384 14.4114 14.9616C15.1671 15.283 16.0419 15.7645 16.7243 16.4515L17.8792 17.6141C17.8792 17.6141 13.8064 16.3341 10.3281 18.6281C11.3523 17.116 13.1375 16.5603 14.4965 16.3627C13.4849 15.8394 12.5026 15.6236 12.4881 15.6205L10.7393 15.246L12.3469 14.4635C12.4896 14.3941 12.6385 14.3312 12.7861 14.2668V14.2647C14.3608 11.5866 17.9954 10.5534 17.9954 10.5534C16.5532 8.49943 13.2605 8.29878 13.2605 8.29878C16.8802 6.14002 21.4154 7.60005 21.4154 7.60005C21.0843 6.72471 20.2241 6.09871 20.2241 6.09871C22.5872 5.56519 25.4176 7.97176 25.4176 7.97176C25.4919 7.55351 25.355 6.7321 25.355 6.7321C26.5682 7.70084 27.2848 9.17906 27.6047 9.97457C28.1583 8.70317 28.6933 7.20954 28.8659 5.87926C28.5395 6.15666 28.1515 6.40817 27.7144 6.55365L27.1803 6.73149L26.9547 6.21553C26.9414 6.18532 25.8161 3.67272 23.735 2.37728C23.9159 2.96382 24.0361 3.70015 23.9748 4.57395L23.879 5.93659L22.9201 4.96293C22.888 4.93025 20.0432 2.07769 16.7551 1.54108C16.7529 1.54385 16.7505 1.54632 16.7486 1.54909C17.1946 2.20498 17.6887 3.10621 17.9482 4.1594L18.3187 5.66351L17.0158 4.82515C16.9903 4.80882 14.5812 3.30686 10.6699 3.24645C11.0419 3.72419 11.4081 4.36775 11.6183 5.19871L11.8374 6.06512L10.9495 5.96186C10.9156 5.95817 8.15731 5.6481 5.8845 6.10303C5.88697 6.10457 5.88943 6.10611 5.89159 6.10765C8.58296 6.50063 9.3908 8.65354 9.3908 8.65354C4.80173 10.0556 4.24971 13.2876 4.3206 15.0657C4.39981 15.279 4.4781 15.4957 4.55854 15.7059C5.56796 14.7846 7.50142 13.1736 9.61026 12.2289C9.09399 12.0489 8.4119 11.9173 7.59019 12.0082L5.13923 12.2788C11.904 8.28368 14.5615 10.0649 14.5615 10.0649C12.7516 9.82293 10.9334 10.3879 9.6494 10.9532C10.7855 11.2672 11.4562 11.8316 11.4984 11.8677L12.3685 12.6145L11.2657 12.9282C10.9214 13.0262 10.5753 13.1545 10.2319 13.3036C7.24067 15.7666 6.46457 18.6032 6.26515 19.8425C6.27008 19.8539 6.27502 19.8659 6.28026 19.8773C6.72687 18.7406 7.59389 17.267 9.26937 16.0622C9.26937 16.0622 7.11399 18.9416 7.05019 21.5494C7.58711 22.6806 8.13574 23.7618 8.693 24.7996C9.35074 23.8309 10.6856 22.54 13.3101 21.9014L14.1229 21.7035L14.0708 22.5385C14.0674 22.5943 14.0181 23.3013 13.7456 24.1795C14.2184 24.075 14.9517 23.8081 15.4245 23.1331C15.6002 22.851 15.7373 22.545 15.8144 22.2118C15.8144 22.2118 16.1778 23.2163 15.1009 24.5031C14.7245 25.7138 13.9901 27.446 12.6601 28.5969C12.6601 28.5969 14.1808 27.7872 15.1807 28.0233C15.1807 28.0233 13.2704 29.9629 13.7207 32.6712C13.7817 32.7862 13.8449 32.8999 13.9108 33.0112C14.5692 33.8881 15.2279 34.7178 15.8831 35.4945C16.3368 33.5006 17.3145 31.9484 18.2207 30.8626C17.6961 30.6912 17.0353 30.502 16.6189 30.3858L15.5552 30.6271L16.2518 29.4096C16.8509 28.362 17.7084 27.4025 18.5483 26.6061Z" fill="#FED81C"/>
<path fill-rule="evenodd" clip-rule="evenodd" d="M35.7684 19.5315C31.8943 22.4966 30.8384 18.7496 30.8384 18.7496C33.0033 19.6752 34.8132 18.7366 35.1208 18.5606C31.4394 19.8869 30.1843 15.8702 30.1843 15.8702C30.2657 16.1877 30.6957 16.4336 31.1167 16.6038C31.4354 16.6333 31.7846 16.5933 32.0318 16.5514C32.2167 15.7626 33.1802 15.0146 34.631 15.2744C35.2351 15.3829 35.6312 15.7525 35.8926 16.1766L35.8938 16.1655C36.5599 16.3196 36.7762 16.8568 36.8114 17.4082C37.0601 17.0649 37.1788 16.6817 37.1788 16.6817C37.2675 18.2265 36.6169 19.0748 35.7684 19.5315ZM25.451 18.7135C25.3949 14.4462 29.4237 15.3422 29.4237 15.3422C26.556 15.9808 25.451 18.7135 25.451 18.7135ZM33.0499 14.3152C33.0499 14.3152 30.8295 12.2505 27.8841 14.576C27.8841 14.576 29.8758 10.636 33.0499 14.3152ZM37.957 22.1588L37.9573 22.1585C41.569 21.7501 42.0197 20.5539 42.0197 20.5539C41.5715 20.3264 41.4146 19.9637 41.3668 19.6638C41.0932 19.3854 40.9239 19.0076 40.9723 18.4891C41.0488 17.6736 41.1952 17.1872 41.341 16.8938C40.7066 16.3146 39.7925 15.3934 39.1261 14.3568C39.1168 14.4949 39.1175 14.6191 39.1304 14.7208L39.4476 17.1995L38.0137 15.1527C37.7342 14.7532 35.8013 11.9595 34.8459 9.67653C34.7836 9.92095 34.7475 10.1423 34.7562 10.3084L34.8338 11.8519L33.7147 10.7855C33.6962 10.7676 32.1563 9.3227 30.3782 8.63013C30.1788 9.67283 29.2079 11.0669 29.2079 11.0669C29.6847 11.0429 29.9624 11.475 29.9624 11.475C28.5748 11.545 26.2028 13.6017 25.8748 13.8914C24.9314 15.0482 24.0517 16.585 23.8557 18.4306L23.9229 18.4515C23.9146 18.4783 23.8828 18.5776 23.8295 18.7317C23.8024 19.1567 23.8091 19.5963 23.8625 20.0515C24.212 19.8774 24.6629 19.7115 25.2297 19.6049L26.1932 19.4233C26.1932 19.4233 24.6025 22.3524 25.2935 24.3638C24.9471 23.8669 24.7554 23.3121 24.6534 22.7697C24.6962 24.0719 25.0602 25.4894 25.0602 25.4894C24.3957 24.9491 23.9287 22.6464 23.9287 22.6464C23.5284 22.9216 23.1902 23.9264 23.1902 23.9264L22.715 23.2175C22.5384 23.5855 22.2764 23.9156 22.0295 24.1776L23.7947 24.0886L21.8483 25.3396C21.8393 25.3455 21.5733 25.519 21.1699 25.8158C20.3392 26.8727 19.8871 28.0649 19.692 28.6853C20.0217 28.7066 20.3293 28.7559 20.5821 28.8484L21.6988 29.2568L20.7214 29.9339C20.7063 29.9447 19.9992 30.4493 19.1843 31.3924C18.5707 32.907 18.7904 34.1192 19.1766 34.9647C19.777 32.281 20.882 30.5162 20.9393 30.4258C19.8365 33.5349 20.154 36.1963 20.1718 36.3366L20.1728 36.3372C27.706 30.6243 29.5362 39.0301 29.5362 39.0301C29.7411 38.6692 30.2374 39.6638 30.8094 39.6351C31.3818 39.6062 31.6882 38.7302 31.8962 38.4328C31.9973 38.2882 32.3773 38.4318 32.7407 38.6171C32.6948 38.2808 32.5943 37.8721 32.4112 37.3756C31.3867 34.5976 29.6049 33.8415 29.53 33.8104L29.1765 33.6658C29.4021 28.0316 26.2441 26.7873 24.7896 26.5121C25.8915 26.6844 26.7751 27.0934 27.4871 27.6269C27.4646 27.601 27.4492 27.5834 27.4492 27.5834C29.2011 27.7977 29.4721 28.2939 29.4721 28.2939C29.1996 26.6825 29.6598 25.0659 29.6598 25.0659C29.0008 24.9473 27.9849 25.5329 27.9849 25.5329C27.9926 25.208 28.041 24.869 28.1054 24.549L27.3823 24.6868L27.7127 23.6906C27.84 23.3075 28.0379 22.9836 28.2604 22.7111C27.7269 21.8543 27.7282 20.4192 27.7288 20.3292C27.5478 19.8619 27.4723 19.5084 27.4646 19.4708C27.4646 19.4708 28.5776 21.6333 31.5726 22.1724L30.6171 22.5616C31.5716 22.6661 32.3893 23.3461 32.3893 23.3461L32.3823 23.3562L32.39 23.3587L32.0716 23.9976C31.9572 24.2263 31.7402 24.721 31.5858 25.2379C32.7654 24.0269 34.3416 24.3832 34.3416 24.3832C33.4055 24.7811 33.1365 27.0253 33.1365 27.0253C36.1345 26.1339 40.2036 23.6342 41.2833 22.9525C40.3849 23.3571 38.1158 23.396 38.1158 23.396C37.8152 23.7902 37.1211 23.6466 37.0046 23.6191C36.7124 23.756 36.4588 23.8001 36.4588 23.8001C37.5865 23.0267 37.1843 20.7638 37.1843 20.7638C37.8029 21.1087 37.9321 21.8083 37.957 22.1588Z" fill="#FED81C"/>
<path fill-rule="evenodd" clip-rule="evenodd" d="M36.6872 18.8075C36.6872 18.8075 36.689 18.802 36.689 18.8014C36.6854 18.8063 36.6817 18.8111 36.6781 18.816C36.6811 18.8129 36.6842 18.8105 36.6872 18.8075Z" fill="#41886D"/>
<path fill-rule="evenodd" clip-rule="evenodd" d="M30.6712 24.1903C30.4425 24.7882 30.1932 25.6139 30.2283 26.308L30.2804 27.3387C30.715 25.977 33.6354 24.8804 33.6354 24.8804C33.01 24.7472 32.2456 24.9556 31.6295 25.2034C31.7842 24.68 32.0052 24.1761 32.1208 23.9446L32.4392 23.3057L31.7611 23.0834C31.2553 22.9176 30.4342 22.9417 29.7037 23.0135C30.0036 22.7842 30.2684 22.671 30.2721 22.6692L30.6419 22.5185L31.6218 22.1193C28.6268 21.5803 27.5138 19.4178 27.5138 19.4178C27.5215 19.4554 27.5976 19.8108 27.7792 20.2796C27.9909 20.826 28.3466 21.5275 28.9125 22.0682C28.71 22.2275 28.4986 22.426 28.3059 22.6627C28.0846 22.9343 27.8883 23.2567 27.7619 23.6376L27.4315 24.6338L28.158 24.4954L28.4625 24.4374C29.0913 24.3179 30.0033 24.1995 30.6712 24.1903Z" fill="#1A1919"/>
<path fill-rule="evenodd" clip-rule="evenodd" d="M35.3053 16.0749C35.4391 16.2263 35.5916 16.43 35.5765 16.6458C35.5645 16.819 35.4921 16.9549 35.3753 17.0532C35.3679 17.0637 35.3629 17.0745 35.354 17.0847C35.2378 17.2203 35.0788 17.2748 34.912 17.2899C34.8448 17.314 34.7712 17.3272 34.6919 17.3266C34.0234 17.3201 33.5814 16.3283 34.1023 15.8626C34.4691 15.5346 35.0137 15.7445 35.3053 16.0749ZM33.1102 16.4414C33.5071 16.4214 33.5383 17.0369 33.141 17.0572C32.744 17.0773 32.7132 16.4614 33.1102 16.4414ZM32.0508 16.4451C32.0274 16.5499 32.0163 16.6553 32.0212 16.7592C32.0212 16.7592 31.6085 16.6704 31.1752 16.5C30.7424 16.3295 30.2893 16.0777 30.2055 15.751C30.2055 15.751 31.4717 19.8081 35.1937 18.4242C35.1937 18.4242 34.4555 19.7742 32.412 19.8481C32.412 19.8481 34.4395 20.1829 35.8579 19.3719C36.148 19.2061 36.4115 18.9916 36.6282 18.717C36.63 18.7145 36.6319 18.7121 36.6337 18.7096C37.0215 18.214 37.2554 17.5248 37.1999 16.5625C37.1999 16.5625 37.0816 16.9453 36.8328 17.2884C36.7194 17.4447 36.5795 17.5926 36.4109 17.6922C36.4109 17.6922 36.3665 16.794 35.9153 16.0598C35.6542 15.6345 35.2575 15.2637 34.6522 15.1552C33.1937 14.8941 32.228 15.6514 32.0508 16.4451Z" fill="#1A1919"/>
<path fill-rule="evenodd" clip-rule="evenodd" d="M33.2137 14.2072C30.0397 10.528 28.048 14.468 28.048 14.468C30.9933 12.1424 33.2137 14.2072 33.2137 14.2072Z" fill="#1A1919"/>
<path fill-rule="evenodd" clip-rule="evenodd" d="M23.3106 12.8789C23.7486 12.9008 24.2165 13.0053 24.6877 13.2426C24.0987 11.1908 22.1918 10.1712 22.1918 10.1712C22.1918 10.1712 23.158 11.5375 23.3121 12.8786L23.3106 12.8789Z" fill="#A76521"/>
<path fill-rule="evenodd" clip-rule="evenodd" d="M23.8244 14.8959C24.0093 14.6129 24.206 14.35 24.4113 14.1071C23.7603 13.3008 22.4417 13.2318 21.7412 13.2577C21.7455 13.2608 22.2318 13.6011 22.4128 14.2418C22.4128 14.2418 21.2998 15.3893 20.0342 14.845C20.205 15.0167 20.5829 15.3188 21.0474 15.2075L21.1334 15.1865C22.0611 14.9634 23.0788 14.7199 23.8244 14.8959Z" fill="#A76521"/>
<path fill-rule="evenodd" clip-rule="evenodd" d="M22.7415 13.2723C22.5493 13.2607 22.3675 13.2559 22.1918 13.2534C22.3675 13.2559 22.5499 13.2607 22.7415 13.2723Z" fill="#E1E2E0"/>
<path fill-rule="evenodd" clip-rule="evenodd" d="M24.3493 13.8699C24.418 13.9264 24.4831 13.9866 24.5482 14.0474V14.0468C24.4831 13.986 24.4174 13.9264 24.3493 13.8699Z" fill="#E1E2E0"/>
<path fill-rule="evenodd" clip-rule="evenodd" d="M22.7624 9.26901C22.3275 9.45548 19.691 10.7596 20.0717 14.7525C21.3372 15.2969 22.4502 14.1494 22.4502 14.1494C22.2696 13.5098 21.7848 13.1695 21.7789 13.1655C21.4981 13.1754 21.3157 13.2007 21.3157 13.2007C21.3619 13.1701 21.4137 13.1396 21.4679 13.1091C21.4821 13.1014 21.4969 13.0937 21.5117 13.0857C21.5573 13.0616 21.6051 13.0376 21.6553 13.0142C21.6689 13.008 21.6818 13.0019 21.6954 12.9957C21.8313 12.935 21.9826 12.8789 22.1472 12.8311C22.1482 12.8311 22.1488 12.8308 22.1494 12.8305C22.4912 12.7322 22.8882 12.6739 23.3148 12.6949L23.3163 12.6946C23.1622 11.3535 22.1959 9.98716 22.1959 9.98716C24.2286 10.3382 25.2516 11.8226 25.7149 12.7972C25.7411 12.7765 25.767 12.7584 25.7929 12.7383C25.7263 12.0926 25.4701 10.5309 24.5239 9.73195C24.0557 9.33713 23.4791 9.18487 22.7624 9.26901Z" fill="#D19627"/>
<path fill-rule="evenodd" clip-rule="evenodd" d="M32.9912 17.2599C33.396 17.2398 33.3642 16.6243 32.9595 16.6443C32.5548 16.6644 32.5862 17.2799 32.9912 17.2599Z" fill="#FFFFFE"/>
<path fill-rule="evenodd" clip-rule="evenodd" d="M34.1329 15.8839C33.612 16.3496 34.054 17.3414 34.7225 17.3476C34.8017 17.3485 34.8754 17.3353 34.9426 17.3112C35.1093 17.2961 35.2684 17.2416 35.3849 17.1056C35.3935 17.0955 35.3985 17.0847 35.4059 17.0745C35.5227 16.9759 35.5951 16.8403 35.6071 16.667C35.6222 16.4513 35.4697 16.2476 35.3359 16.0959C35.0443 15.7655 34.4997 15.5559 34.1329 15.8839Z" fill="#FFFFFE"/>
<path fill-rule="evenodd" clip-rule="evenodd" d="M40.0685 9.55481C40.0849 9.74538 40.1025 9.94895 40.1202 10.1629C40.1025 9.94895 40.0849 9.74538 40.0685 9.55481Z" fill="#DEDFDE"/>
<path fill-rule="evenodd" clip-rule="evenodd" d="M41.2829 15.2356C40.7626 14.7045 40.0207 13.6544 40.0207 13.6544C39.7205 13.1801 39.4949 12.6996 39.4188 12.2499L38.995 9.74435L38.2235 12.1657C38.1985 12.2446 38.0873 12.6012 37.9822 13.0571C36.888 11.3363 35.4887 8.88411 35.4363 7.71442L35.4088 7.09767C36.8695 7.46075 38.3264 7.86514 39.7778 8.31884L39.7859 8.31236C41.642 8.8989 42.7586 9.44075 42.8748 9.49808C42.419 11.4864 41.8848 13.4014 41.2829 15.2356ZM42.9044 20.3841L42.8573 20.4044C43.0419 20.8365 42.6696 21.2203 42.3749 21.4425C42.3749 21.4425 40.7108 22.4134 37.8509 22.3829C37.8509 22.3829 37.8549 22.3055 37.8468 22.1841C37.8237 21.8376 37.6986 21.1257 37.0732 20.7771C37.0732 20.7771 37.4754 23.04 36.3477 23.8133C36.3477 23.8133 36.5912 23.7705 36.8756 23.6404C37.1885 23.4971 37.5513 23.248 37.6983 22.8279C37.6983 22.8279 40.156 22.9774 41.7625 22.5401C41.7819 22.7457 41.8041 23.0902 41.801 23.6013C41.2779 24.2642 37.4798 26.0495 34.1627 27.3631L33.8434 27.4895C33.8434 27.4895 32.392 31.1942 30.1167 32.3082C29.8566 31.0993 29.1563 28.9473 27.3393 27.6103C26.6338 27.0909 25.7603 26.6946 24.6785 26.5253C26.133 26.8006 29.291 28.0449 29.0654 33.6791L29.4189 33.8237C29.4938 33.8548 31.2756 34.6109 32.3001 37.3888C32.4857 37.8918 32.5865 38.3046 32.6315 38.6433C32.7058 39.1978 32.6302 39.5538 32.5273 39.7754C32.3834 40.0842 32.1621 40.1702 32.1658 40.1699L31.7299 40.2941L31.7182 40.7466C31.6889 41.8666 30.1512 41.9693 30.0884 41.973L29.7848 41.9884L29.6119 42.2387C29.3224 42.6585 29.0053 42.8822 28.6416 42.9229C28.2686 42.9639 27.8661 42.8046 27.5628 42.6276L28.7726 40.9799L28.6132 40.6467C26.5534 36.3409 21.943 36.2191 20.0623 36.3631C20.0623 36.3631 19.6952 33.6332 20.8282 30.4391C20.7709 30.5294 19.6628 32.2961 19.063 34.9841C18.9225 35.6129 18.8097 36.2916 18.745 37.0119L18.6722 37.8287L19.4773 37.6721C19.6721 37.6339 23.4586 36.9373 26.0276 39.2039C26.4511 39.3679 26.8628 40.1138 26.8628 40.1138C26.8638 40.1147 26.8644 40.116 26.865 40.1169C25.6833 41.4379 24.688 42.4418 23.9896 43.1143C23.9847 43.1082 23.9788 43.1026 23.9751 43.0955C23.6521 42.9294 22.5626 42.148 22.2109 41.8941C20.4889 40.4985 18.6121 38.7576 16.6839 36.6044C16.9647 34.2897 18.1051 32.5224 19.0852 31.3918C19.8949 30.4579 20.5952 29.9577 20.6103 29.9472L21.5874 29.27L20.471 28.8616C20.2192 28.7695 19.9144 28.7189 19.5858 28.6971C19.0387 28.661 18.4266 28.7054 17.8844 28.7723C18.9336 27.4747 20.2916 26.3913 21.0834 25.8106C21.4733 25.5246 21.7282 25.3584 21.7372 25.3529L23.6836 24.1018L21.9316 24.1903L20.4846 24.2633C21.3799 23.3775 22.0925 22.267 22.6254 21.2551C22.6261 21.2591 22.6261 21.2631 22.6267 21.2674L22.8215 22.5928L23.7088 21.5787C23.7218 21.5636 23.9455 21.3143 24.4698 21.0896C24.4276 21.5689 24.427 22.1687 24.5429 22.7848C24.6449 23.3266 24.8366 23.8808 25.1824 24.3771C24.4914 22.3656 26.0821 19.4366 26.0821 19.4366L25.1186 19.6182C24.5518 19.7248 24.1009 19.8906 23.7514 20.0648C23.698 19.6095 23.6913 19.17 23.7184 18.745C23.7717 18.5909 23.8035 18.4916 23.8115 18.4648L23.7446 18.4438C23.9378 16.6226 24.7969 15.1024 25.7264 13.9509C27.0034 12.3688 28.4135 11.4842 28.4135 11.4842C28.4024 11.4873 28.2058 11.5456 27.8941 11.6726C28.3457 10.7544 28.8669 9.57884 29.2676 8.34719C29.6051 8.41007 29.9413 8.51579 30.2705 8.64401C32.0471 9.33719 33.5851 10.7809 33.6036 10.7988L34.7227 11.8652L34.6451 10.3216C34.6364 10.1555 34.6725 9.93421 34.7348 9.68979C35.6902 11.9728 37.6231 14.7665 37.9026 15.1659L39.3365 17.2128L39.0193 14.7341C39.0064 14.6324 39.0058 14.5082 39.015 14.3701C39.6814 15.4066 40.5956 16.3279 41.2299 16.9071C41.0841 17.2005 40.9377 17.6868 40.8612 18.5024C40.8128 19.0205 40.9814 19.399 41.2548 19.6776C41.6842 20.1147 42.374 20.3036 42.9044 20.3841ZM35.2196 28.6218L31.9919 34.2425C31.9919 34.2425 31.3588 33.6329 30.9159 33.3139C31.835 32.6238 34.1331 30.7202 34.945 28.3962L34.9477 28.3984C34.9493 28.3907 34.9514 28.3833 34.9527 28.3756C35.1358 28.3022 35.3136 28.2307 35.4884 28.1598C35.398 28.3164 35.3068 28.465 35.2162 28.6194L35.2196 28.6218ZM23.9671 43.1362L23.9551 43.1159C23.9551 43.1159 23.9653 43.1199 23.9785 43.1251C23.9748 43.1288 23.9708 43.1328 23.9671 43.1362ZM24.6529 13.2232C23.2628 12.5242 21.894 12.9585 21.2767 13.3656C21.2767 13.3656 23.4996 13.0518 24.4097 14.1796C24.2045 14.4225 24.0078 14.6854 23.8229 14.9684C23.0773 14.7924 22.0596 15.0359 21.1318 15.259L21.0458 15.28C20.5813 15.3912 20.2035 15.0892 20.0327 14.9175C19.6521 10.9245 22.2886 9.62045 22.7235 9.43397C23.4401 9.34983 24.0167 9.50209 24.4849 9.89692C25.4312 10.6958 25.6873 12.2576 25.7539 12.9033C25.728 12.9233 25.7021 12.9415 25.6759 12.9622C25.2126 11.9876 24.1897 10.5032 22.157 10.1521C22.157 10.1521 24.0639 11.1717 24.6529 13.2232ZM13.4988 32.7002C12.2868 31.0703 11.0774 29.2666 9.89507 27.2737C12.6555 26.3484 14.105 25.3156 14.8562 24.4193C15.9359 23.1309 15.5718 22.1243 15.5718 22.1243C15.497 22.4476 15.3663 22.7457 15.198 23.0209C14.7329 23.7819 13.9734 24.3623 13.2537 24.7771C13.3539 24.5416 13.4359 24.3099 13.5043 24.0886C13.7759 23.212 13.8249 22.5068 13.8283 22.451L13.8803 21.616L13.0676 21.8139C10.4431 22.4525 9.10818 23.7434 8.45045 24.7121C7.89319 23.6743 7.34455 22.5931 6.80764 21.4619C6.87144 18.8541 9.02682 15.9747 9.02682 15.9747C7.35134 17.1795 6.48431 18.6531 6.03771 19.7898C6.03247 19.7781 6.02723 19.7658 6.02199 19.7538C5.60558 18.8186 5.19719 17.853 4.79836 16.8556C5.59572 16.1001 7.73291 14.1978 9.9789 13.2211C10.326 13.0703 10.6755 12.9397 11.0232 12.8407L12.126 12.527L11.2559 11.7801C11.2136 11.7441 10.5429 11.1797 9.40685 10.8657C10.6909 10.3004 12.5091 9.73541 14.3189 9.97736C14.3189 9.97736 11.6615 8.19616 4.89668 12.1913L7.34764 11.9207C8.16935 11.8298 8.85144 11.9614 9.36771 12.1414C7.25887 13.0861 5.32541 14.6971 4.31599 15.6184C4.23586 15.4088 4.15726 15.1946 4.07805 14.9822C3.59969 13.6982 3.13644 12.3667 2.69199 10.9828C4.12459 8.9513 6.96822 8.7112 6.99596 8.70904L7.85959 8.64801L7.51962 7.85219C7.20092 7.10538 6.38353 6.46798 5.64195 6.01551C7.91476 5.56058 10.673 5.87065 10.7069 5.87435L11.5949 5.9776L11.3758 5.1112C11.1655 4.28024 10.7994 3.63668 10.4274 3.15894C14.3387 3.21935 16.7477 4.7213 16.7733 4.73764L18.0761 5.57599L17.7057 4.07188C17.4449 3.01315 16.9468 2.1076 16.499 1.45079C19.7926 1.98154 22.6455 4.84274 22.6775 4.87541L23.6364 5.84908L23.7323 4.48644C23.7936 3.61264 23.6734 2.8763 23.4925 2.28976C25.5736 3.58521 26.6989 6.09781 26.7121 6.12801L26.9377 6.64397L27.4719 6.46613C27.9089 6.32065 28.297 6.06914 28.6234 5.79175C28.4508 7.1214 27.916 8.61442 27.3628 9.88551C27.135 10.4086 26.9045 10.8949 26.6942 11.3153C26.4535 10.5016 26.0294 9.58932 25.2838 8.95839C24.5281 8.31822 23.5859 8.07195 22.4827 8.22175L22.3539 8.2538C22.32 8.26644 19.5809 9.31808 18.9099 12.6308C17.7781 12.7541 14.8891 13.1517 12.5433 14.1744C12.3947 14.2391 12.248 14.306 12.1044 14.376L10.4967 15.1585L12.2455 15.533C12.26 15.5361 13.2423 15.7518 14.2539 16.2752C12.895 16.4728 11.1098 17.0285 10.0855 18.5406C13.5638 16.2465 17.6366 17.5266 17.6366 17.5266L16.4817 16.364C15.7993 15.677 14.9246 15.1955 14.1688 14.874C15.9118 14.2964 17.7756 14.0116 18.7678 13.8902C18.7545 14.3137 18.7715 14.7649 18.8279 15.2479L18.847 15.4116L18.9453 15.5441C18.9946 15.6107 19.0584 15.6825 19.1284 15.7559C19.4998 16.1439 20.1452 16.5757 20.9441 16.5353C21.0705 16.5289 21.2002 16.5107 21.3334 16.4786L21.4203 16.4577C21.4292 16.4555 21.44 16.453 21.4493 16.4509C21.2607 16.9644 20.9974 17.423 20.7133 17.8225C19.923 18.933 18.9663 19.5744 18.9663 19.5744C19.9439 19.4785 20.688 19.0914 21.2529 18.5989C22.157 17.8111 22.6002 16.7526 22.7863 16.1738C22.9352 16.1516 23.0751 16.1365 23.1984 16.1307C22.9414 16.7246 22.7413 17.387 22.6251 18.1267C22.561 18.3239 22.1345 19.5984 21.3756 20.9749C20.6233 22.3407 19.5442 23.8069 18.1677 24.4221L15.1598 25.7665L17.0337 25.6719L19.3993 25.5526C19.0557 25.834 18.6833 26.1607 18.3076 26.5167C17.4671 27.3135 16.609 28.2736 16.0092 29.3221L15.3126 30.5399L16.3825 30.297L16.6811 30.2292C17.2227 30.1062 18.0324 29.9725 18.7514 29.929C18.511 30.1676 18.2484 30.4505 17.9797 30.7723C17.0732 31.8588 16.0946 33.4125 15.6406 35.407C14.9292 34.5634 14.2135 33.6618 13.4988 32.7002ZM9.1464 25.9776C9.38897 25.4185 10.1833 24.0793 12.4465 23.2813C12.2721 24.0195 11.904 25.0471 11.1455 25.7298L9.73479 27.0003C9.53784 26.6647 9.34181 26.3241 9.1464 25.9776ZM1.49579 6.97408C1.95658 6.83877 2.70062 6.63503 3.69493 6.40757L3.77291 6.43962C4.36007 6.68158 5.24219 7.15253 5.82997 7.66017C4.84767 7.89349 3.38548 8.4187 2.25401 9.57914C1.99479 8.72723 1.74021 7.86329 1.49579 6.97408ZM29.8399 5.93384C31.4149 6.20014 32.9869 6.51976 34.5548 6.88993L34.2681 7.46784C34.2068 7.59205 33.8304 8.3663 33.5974 9.18031C32.6974 8.48065 31.1973 7.48479 29.6091 7.15408C29.7086 6.74322 29.7875 6.33452 29.8399 5.93384ZM44.6024 8.61688L44.6021 8.61719C43.6216 8.20325 41.7412 7.61455 40.0096 7.10291C38.7996 6.72719 37.5858 6.38168 36.3689 6.06791C36.2857 6.0451 36.2376 6.03216 36.2376 6.03216L36.2423 6.03586C35.9454 5.96003 35.6486 5.88329 35.3515 5.81086L35.3299 5.32572L35.1166 5.7563C33.3832 5.34051 31.6442 4.98699 29.9019 4.69603C29.8933 4.46856 29.8766 4.2451 29.8405 4.03151L29.5561 2.34986L28.6995 3.825C28.6961 3.83086 28.5245 4.11503 28.2434 4.43743C27.8615 4.38226 27.4796 4.33356 27.0977 4.28455C26.243 2.95058 24.6532 1.03346 22.3209 0.46387L20.409 0L21.7165 1.47545C21.7433 1.50565 22.1946 2.02654 22.4069 2.99466C20.9071 1.79661 18.1242 -0.00893836 15.1212 0.142705L13.7256 0.212979L14.7187 1.1962C14.7283 1.20606 15.4279 1.90664 15.9833 2.98818C14.5381 2.40997 12.0754 1.73281 8.86932 1.97445L6.85264 2.12887L8.61257 3.12565C8.62058 3.13027 9.14979 3.45205 9.61675 4.14832C4.0238 4.8039 0.71476 5.91997 0.544623 5.97853L0 6.16562L0.149486 6.72164C5.55935 26.84 14.8312 37.5722 21.6567 43.0329C21.8416 43.1809 22.0247 43.323 22.2072 43.4635C22.2087 43.4651 22.21 43.4666 22.2115 43.4678C22.9414 44.1188 24.3678 44.8739 24.3678 44.8739L24.6634 44.5972C24.664 44.5975 24.6646 44.5975 24.6649 44.5978C24.7118 44.554 24.7654 44.5025 24.8157 44.4548L24.8677 44.4064L24.8674 44.4058C25.2216 44.0683 25.6614 43.6371 26.173 43.1125L26.2791 43.2117C26.3201 43.2499 26.4766 43.3908 26.7161 43.5526C27.5517 44.0226 27.9015 44.0883 27.9015 44.0883C28.1321 44.1428 28.3777 44.1727 28.6339 44.1598C28.6789 44.1576 28.7242 44.1542 28.7698 44.149C29.4189 44.079 29.9829 43.7517 30.4505 43.1747C31.3542 43.045 32.6715 42.5093 32.9129 41.1577C33.1373 41.0101 33.4082 40.7648 33.6101 40.3672C33.9436 39.7107 33.9781 38.859 33.7238 37.8324L33.7343 37.8213C33.5641 37.097 33.1169 36.16 32.944 35.8129C32.8555 35.6446 32.7646 35.4868 32.6725 35.3339C34.3615 32.9986 36.1224 30.2742 37.7938 27.1868C38.1486 27.0302 38.4824 26.8798 38.7909 26.7365C40.3098 26.0112 42.2612 24.8024 42.2612 24.8024V24.8027C43.0249 24.21 43.0311 23.8947 43.0329 23.7144C43.0394 23.1765 43.0203 22.7833 42.9984 22.5166C43.6429 22.0673 44.3595 21.2378 44.0852 20.1995C45.4321 19.1386 44.5784 16.2509 44.5784 16.2509C44.3068 16.3698 43.3279 16.4228 42.5746 16.4463C42.5574 16.4321 42.5361 16.4133 42.5179 16.3982C43.18 14.453 43.7702 12.4185 44.2723 10.2998L44.2837 10.3065C44.2797 10.3028 44.2772 10.2991 44.2732 10.2954C44.3925 9.79274 44.5124 9.29127 44.6212 8.77931L44.6227 8.77993L44.6566 8.64L44.6024 8.61688Z" fill="#1A1919"/>
</svg>
